<svg width="60" height="60" viewBox="0 0 60 60" fill="none" xmlns="http://www.w3.org/2000/svg">
<path d="M18.5796 26.0293C18.5646 26.5295 18.6308 27.0288 18.7756 27.5078C18.9187 27.9204 19.0975 28.3197 19.3099 28.7013C19.3859 28.8117 19.4291 28.9414 19.4346 29.0753C19.4253 29.1781 19.3913 29.2772 19.3354 29.364C19.2796 29.4508 19.2036 29.5229 19.114 29.5741L18.063 30.2688C17.938 30.3581 17.7891 30.4077 17.6355 30.4113C17.5408 30.4098 17.4475 30.3883 17.3616 30.3485C17.2756 30.3086 17.1991 30.2511 17.1368 30.1797C16.906 29.9486 16.7028 29.6916 16.5311 29.4138C16.3708 29.1288 16.2105 28.8081 16.0323 28.4341C15.448 29.1641 14.7044 29.7507 13.8584 30.149C13.0124 30.5473 12.0865 30.7467 11.1516 30.7319C10.5476 30.7646 9.94315 30.6758 9.37406 30.4708C8.80498 30.2658 8.28277 29.9488 7.83833 29.5385C7.42484 29.1211 7.10341 28.6218 6.89477 28.0726C6.68614 27.5234 6.59494 26.9365 6.62704 26.3499C6.60545 25.7043 6.72863 25.0621 6.98754 24.4703C7.24645 23.8785 7.63454 23.3521 8.12334 22.9298C9.2842 22.0249 10.7327 21.5695 12.2025 21.6473C12.7986 21.6446 13.394 21.6863 13.9838 21.772C14.6073 21.861 15.2308 21.9857 15.8898 22.1282V20.9169C15.985 19.9638 15.7037 19.0113 15.1061 18.2628C14.3359 17.6682 13.366 17.3938 12.3985 17.4968C11.7985 17.4997 11.2008 17.5714 10.6172 17.7106C10.0097 17.8547 9.41417 18.0453 8.83586 18.2806L8.24803 18.4944H7.99865C7.74926 18.4944 7.64238 18.3162 7.64238 17.9778V17.1584C7.6266 16.9622 7.66349 16.7655 7.74926 16.5884C7.8818 16.4361 8.04592 16.3145 8.23022 16.2321C8.89715 15.9112 9.59561 15.6605 10.3143 15.484C11.158 15.2667 12.0261 15.1589 12.8972 15.1633C14.4676 15.0264 16.0288 15.5127 17.2436 16.5171C17.7425 17.0648 18.1221 17.7103 18.3582 18.4125C18.5943 19.1148 18.6819 19.8584 18.6152 20.5963L18.5796 26.0293ZM11.8463 28.5587C12.4529 28.5596 13.0553 28.4572 13.6276 28.2559C14.2371 28.0479 14.7788 27.6785 15.1951 27.1871C15.47 26.8899 15.6659 26.5286 15.7651 26.1362C15.8803 25.6641 15.9341 25.1792 15.9255 24.6933V23.9452C15.4021 23.8364 14.8727 23.7591 14.3401 23.7136C13.8057 23.7136 13.2891 23.7136 12.7726 23.7136C11.9017 23.6437 11.0334 23.8765 10.3143 24.3727C10.0364 24.6066 9.81748 24.9026 9.67514 25.2368C9.53279 25.571 9.47107 25.934 9.49495 26.2965C9.46562 26.6193 9.50438 26.9446 9.60871 27.2514C9.71303 27.5583 9.88061 27.8398 10.1006 28.0778C10.5958 28.4629 11.2236 28.6359 11.8463 28.5587ZM25.1883 30.3401C24.9625 30.3611 24.7363 30.3045 24.547 30.1797C24.3661 29.9998 24.2423 29.7705 24.1907 29.5207L20.3075 16.6952C20.2285 16.4774 20.1806 16.2495 20.165 16.0183C20.165 15.7512 20.2897 15.6086 20.5569 15.6086H22.1957C22.4214 15.5877 22.6476 15.6442 22.8369 15.769C23.0104 15.9518 23.1279 16.1805 23.1754 16.428L25.972 27.5078L28.5906 16.4459C28.6179 16.1957 28.7312 15.9627 28.9112 15.7868C29.1071 15.662 29.3389 15.6056 29.5703 15.6265H30.9063C31.1433 15.6056 31.3807 15.6618 31.5832 15.7868C31.7502 15.9717 31.8614 16.2003 31.9038 16.4459L34.4867 27.5078L37.3546 16.3924C37.4021 16.1449 37.5195 15.9162 37.693 15.7333C37.8824 15.6086 38.1085 15.552 38.3343 15.573H39.8841C39.9392 15.5675 39.9949 15.5742 40.0472 15.5929C40.0994 15.6115 40.1469 15.6415 40.1861 15.6807C40.2253 15.7199 40.2553 15.7674 40.2739 15.8196C40.2925 15.8718 40.2993 15.9275 40.2938 15.9827C40.3004 16.0717 40.3004 16.161 40.2938 16.2499C40.2938 16.2499 40.2938 16.4815 40.1869 16.6596L36.1611 29.485C36.1136 29.7326 35.9962 29.9613 35.8227 30.1441C35.6312 30.264 35.4067 30.3201 35.1814 30.3044H33.7564C33.5221 30.3294 33.2871 30.2658 33.0973 30.1263C32.9208 29.9479 32.8081 29.7162 32.7766 29.4672L30.1937 18.7794L27.6287 29.4672C27.5972 29.7162 27.4845 29.9479 27.308 30.1263C27.1168 30.2628 26.8829 30.326 26.6489 30.3044L25.1883 30.3401ZM46.564 30.7676C45.7008 30.7717 44.8401 30.6761 43.9989 30.4826C43.3368 30.3497 42.6956 30.128 42.0929 29.8235C41.8798 29.7219 41.7004 29.5611 41.5763 29.3603C41.5071 29.2094 41.4707 29.0455 41.4694 28.8794V28.0422C41.4694 27.7037 41.5941 27.5256 41.8435 27.5256C41.9497 27.5086 42.0579 27.5086 42.1641 27.5256L42.5738 27.7037C43.1448 27.9588 43.7422 28.15 44.3551 28.2737C45.0047 28.4152 45.6676 28.4869 46.3324 28.4875C47.1762 28.54 48.0173 28.3483 48.755 27.9353C49.0228 27.7724 49.2429 27.5416 49.3931 27.2664C49.5432 26.9911 49.618 26.6812 49.61 26.3677C49.6184 26.1546 49.5833 25.942 49.5067 25.7429C49.4302 25.5438 49.3138 25.3624 49.1647 25.2099C48.6825 24.792 48.109 24.493 47.4902 24.3371L45.0855 23.5711C44.0451 23.3096 43.1153 22.723 42.4313 21.8967C41.8934 21.2032 41.5992 20.3517 41.5941 19.4741C41.5844 18.8516 41.7379 18.2374 42.0394 17.6928C42.3374 17.1575 42.7439 16.6903 43.2329 16.3212C43.7684 15.9279 44.3725 15.6379 45.0142 15.4661C45.6973 15.2694 46.4054 15.1733 47.1162 15.1811C47.4838 15.1552 47.8529 15.1552 48.2206 15.1811L49.3072 15.3593L50.2513 15.6265L50.946 15.9115C51.1323 16.0215 51.3006 16.1597 51.4447 16.3212C51.544 16.4878 51.5935 16.6795 51.5872 16.8734V17.6571C51.5872 18.0134 51.4626 18.1915 51.2132 18.1915C50.9869 18.1656 50.7685 18.0928 50.5719 17.9778C49.5609 17.5384 48.4678 17.3198 47.3655 17.3365C46.6018 17.2995 45.8413 17.4589 45.1567 17.7997C44.9025 17.9544 44.6953 18.1754 44.5572 18.439C44.4191 18.7027 44.3554 18.9989 44.3729 19.296C44.3721 19.5155 44.4159 19.7329 44.5017 19.935C44.5874 20.1371 44.7133 20.3196 44.8717 20.4716C45.3975 20.8924 46.0037 21.2015 46.653 21.3801L49.0043 22.1282C50.0011 22.3927 50.895 22.9514 51.5694 23.7314C52.0801 24.4009 52.35 25.223 52.3354 26.0649C52.346 26.7309 52.1995 27.3899 51.9079 27.9887C51.6218 28.5623 51.2073 29.0621 50.6966 29.4494C50.1681 29.8743 49.5636 30.1947 48.9153 30.3935C48.1378 30.6435 47.3272 30.7756 46.5105 30.7854L46.564 30.7676Z" fill="white"/>
<path fill-rule="evenodd" clip-rule="evenodd" d="M49.6457 38.9617C43.6837 43.0132 36.6362 45.1678 29.4279 45.1429C20.3141 45.1921 11.51 41.8382 4.73899 35.7376C4.22241 35.2744 4.73899 34.6331 5.30901 34.9894C12.8241 39.2952 21.3367 41.5554 29.9979 41.5446C36.4724 41.5183 42.8775 40.2106 48.8442 37.697C49.7704 37.3051 50.5542 38.3026 49.6457 38.9617Z" fill="#FF9900"/>
<path fill-rule="evenodd" clip-rule="evenodd" d="M51.9257 36.4144C51.2132 35.506 47.2943 35.9869 45.5308 36.2007C44.9964 36.2007 44.9252 35.791 45.4061 35.4525C48.5234 33.2615 53.6536 33.885 54.3127 34.6331C54.9718 35.3813 54.1524 40.5114 51.2132 42.9696C50.7679 43.3437 50.3404 43.13 50.5363 42.649C51.142 40.9568 52.6204 37.2695 51.9257 36.4144Z" fill="#FF9900"/>
</svg>
