<svg width="33" height="32" viewBox="0 0 33 32" fill="none" xmlns="http://www.w3.org/2000/svg">
<path fill-rule="evenodd" clip-rule="evenodd" d="M16.5 31C8.22896 31 1.5 24.271 1.5 16C1.5 7.72908 8.22896 1 16.5 1C24.771 1 31.5 7.72908 31.5 16C31.5 24.271 24.771 31 16.5 31Z" fill="#016B9A"/>
<mask id="mask0" mask-type="alpha" maskUnits="userSpaceOnUse" x="0" y="0" width="33" height="32">
<path fill-rule="evenodd" clip-rule="evenodd" d="M32.5 32H0.5V0L32.5 0V32Z" fill="white"/>
</mask>
<g mask="url(#mask0)">
<path fill-rule="evenodd" clip-rule="evenodd" d="M16.5 0C7.66342 0 0.5 7.16342 0.5 16C0.5 24.8365 7.66342 32 16.5 32C25.3366 32 32.5 24.8365 32.5 16C32.5 7.16342 25.3366 0 16.5 0ZM16.5 1.49573C20.3742 1.49573 24.0165 3.00447 26.756 5.74385C29.4955 8.48335 31.0043 12.1257 31.0043 16C31.0043 19.8742 29.4955 23.5165 26.756 26.256C24.0165 28.9955 20.3742 30.5043 16.5 30.5043C12.6258 30.5043 8.98346 28.9955 6.24396 26.256C3.50447 23.5165 1.99573 19.8742 1.99573 16C1.99573 12.1257 3.50447 8.48335 6.24396 5.74385C8.98346 3.00447 12.6258 1.49573 16.5 1.49573Z" fill="#015174"/>
<path fill-rule="evenodd" clip-rule="evenodd" d="M32.5 16.207C32.5 11.8254 30.7153 7.86112 27.8337 5L5.5 27.3337C8.36112 30.2153 12.3254 32 16.707 32C25.4293 32 32.5 24.9293 32.5 16.207Z" fill="#015174"/>
<path fill-rule="evenodd" clip-rule="evenodd" d="M19.1904 22C18.8091 22 18.5 21.6909 18.5 21.3096V18H21.8096C22.1909 18 22.5 18.3091 22.5 18.6904C22.5 19.0718 22.1909 19.3808 21.8096 19.3808H19.8808V21.3096C19.8808 21.6909 19.5718 22 19.1904 22Z" fill="white"/>
<path fill-rule="evenodd" clip-rule="evenodd" d="M24.7071 25C24.5041 25 24.3012 24.9225 24.1464 24.7677L18.7323 19.3536C18.4226 19.0439 18.4226 18.5419 18.7323 18.2322C19.0419 17.9226 19.5438 17.9226 19.8536 18.2322L25.2677 23.6465C25.5774 23.9561 25.5774 24.4581 25.2677 24.7677C25.1129 24.9225 24.9099 25 24.7071 25Z" fill="white"/>
<path fill-rule="evenodd" clip-rule="evenodd" d="M14.5 14H11.1904C10.8091 14 10.5 13.6909 10.5 13.3096C10.5 12.9282 10.8091 12.6192 11.1904 12.6192H13.1192V10.6904C13.1192 10.3091 13.4282 10 13.8096 10C14.1909 10 14.5 10.3091 14.5 10.6904V14Z" fill="white"/>
<path fill-rule="evenodd" clip-rule="evenodd" d="M13.7071 14C13.5041 14 13.3013 13.9225 13.1465 13.7677L7.73228 8.3536C7.42257 8.04388 7.42257 7.54191 7.73228 7.2322C8.04187 6.9226 8.54395 6.9226 8.85354 7.2322L14.2677 12.6465C14.5774 12.9561 14.5774 13.4581 14.2677 13.7677C14.1129 13.9225 13.9101 14 13.7071 14Z" fill="white"/>
<path fill-rule="evenodd" clip-rule="evenodd" d="M24.637 12C24.1603 12 23.7739 11.6136 23.7739 11.137V8.72606H21.363C20.8864 8.72606 20.5 8.33969 20.5 7.86303C20.5 7.38637 20.8864 7 21.363 7H25.5V11.137C25.5 11.6136 25.1136 12 24.637 12Z" fill="white"/>
<path fill-rule="evenodd" clip-rule="evenodd" d="M19.2929 14C19.0899 14 18.8871 13.9225 18.7323 13.7677C18.4226 13.4581 18.4226 12.9561 18.7323 12.6465L24.1464 7.2322C24.456 6.9226 24.9581 6.9226 25.2677 7.2322C25.5774 7.54191 25.5774 8.04388 25.2677 8.3536L19.8536 13.7677C19.6988 13.9225 19.4959 14 19.2929 14Z" fill="white"/>
<path fill-rule="evenodd" clip-rule="evenodd" d="M11.637 25H7.5V20.863C7.5 20.3864 7.88637 20 8.36303 20C8.83969 20 9.22606 20.3864 9.22606 20.863V23.2739H11.637C12.1136 23.2739 12.5 23.6603 12.5 24.137C12.5 24.6136 12.1136 25 11.637 25Z" fill="white"/>
<path fill-rule="evenodd" clip-rule="evenodd" d="M8.29291 25C8.08994 25 7.88708 24.9225 7.73228 24.7677C7.42257 24.4581 7.42257 23.9561 7.73228 23.6465L13.1465 18.2322C13.456 17.9226 13.958 17.9226 14.2677 18.2322C14.5774 18.5419 14.5774 19.0439 14.2677 19.3536L8.85354 24.7677C8.69875 24.9225 8.49577 25 8.29291 25Z" fill="white"/>
</g>
</svg>
