<svg width="53" height="53" viewBox="0 0 53 53" fill="none" xmlns="http://www.w3.org/2000/svg">
<path d="M33.3023 18.3112L37.0691 14.5361L37.3201 12.9466C30.456 6.69138 19.5447 7.40065 13.357 14.4265C11.6382 16.3779 10.3631 18.8108 9.68311 21.323L11.0322 21.1325L18.5656 19.8875L19.1472 19.2914C22.4983 15.603 28.1643 15.1068 32.0335 18.245L33.3023 18.3112Z" fill="#EA4335"/>
<path d="M42.435 21.212C41.5692 18.0166 39.7917 15.144 37.3201 12.9467L32.0335 18.2449C34.2658 20.073 35.5375 22.8269 35.483 25.7154V26.6559C38.0815 26.6559 40.1883 28.7671 40.1883 31.3713C40.1883 33.9757 38.0815 36.0339 35.483 36.0339H26.0596L25.1343 37.0406V42.6964L26.0596 43.5838H35.483C42.242 43.6366 47.764 38.2411 47.8166 31.4673C47.8484 27.3615 45.8285 23.5123 42.435 21.212Z" fill="#4285F4"/>
<path d="M16.6493 43.5839H26.0595V36.0339H16.6493C15.9788 36.0337 15.3295 35.8893 14.7198 35.6101L13.3847 36.0206L9.59153 39.7957L9.26111 41.0805C11.3883 42.6903 13.9838 43.5955 16.6493 43.5839Z" fill="#34A853"/>
<path d="M16.6493 19.0927C9.8901 19.133 4.44364 24.6573 4.48393 31.4311C4.50644 35.2137 6.26923 38.7745 9.26109 41.0805L14.7197 35.61C12.3515 34.5377 11.2991 31.7446 12.3691 29.3713C13.4389 26.998 16.2261 25.9433 18.594 27.0155C19.6376 27.4879 20.4732 28.3256 20.9447 29.3713L26.4033 23.9008C24.0807 20.858 20.4719 19.0789 16.6493 19.0927Z" fill="#FBBC05"/>
</svg>
