<svg width="24" height="27" viewBox="0 0 24 27" fill="none" xmlns="http://www.w3.org/2000/svg">
<path fill-rule="evenodd" clip-rule="evenodd" d="M22.5 6.80902L12 1.55902L1.5 6.80902V19.9549L12 25.2049L22.5 19.9549V6.80902ZM0.552786 5.60557C0.214002 5.77496 0 6.12123 0 6.5V20.2639C0 20.6427 0.214003 20.989 0.552787 21.1584L11.5528 26.6584C11.8343 26.7991 12.1657 26.7991 12.4472 26.6584L23.4472 21.1584C23.786 20.989 24 20.6427 24 20.2639V6.5C24 6.12123 23.786 5.77496 23.4472 5.60557L12.4472 0.105573C12.1657 -0.0351909 11.8343 -0.0351909 11.5528 0.105573L0.552786 5.60557Z" fill="white" fill-opacity="0.7"/>
<path d="M6.6 8C6.26863 8 6 8.26863 6 8.6V17C6 17.3314 6.26863 17.6 6.6 17.6H13.2V16.4H7.2V9.2H16.8V8.6C16.8 8.26863 16.5314 8 16.2 8H6.6Z" fill="white" fill-opacity="0.7"/>
<path fill-rule="evenodd" clip-rule="evenodd" d="M18 12.8C18 13.7036 17.5006 14.4906 16.7628 14.9H16.8V17.6L15.6 16.7L14.4 17.6V14.9H14.4372C13.6994 14.4906 13.2 13.7036 13.2 12.8C13.2 11.4745 14.2745 10.4 15.6 10.4C16.9255 10.4 18 11.4745 18 12.8ZM15.6 14C16.2627 14 16.8 13.4627 16.8 12.8C16.8 12.1373 16.2627 11.6 15.6 11.6C14.9373 11.6 14.4 12.1373 14.4 12.8C14.4 13.4627 14.9373 14 15.6 14Z" fill="white" fill-opacity="0.7"/>
<path d="M8.4 11.15C8.4 11.0672 8.46716 11 8.55 11H11.85C11.9328 11 12 11.0672 12 11.15V12.05C12 12.1328 11.9328 12.2 11.85 12.2H8.55C8.46716 12.2 8.4 12.1328 8.4 12.05V11.15Z" fill="white" fill-opacity="0.7"/>
<path d="M8.55 13.4C8.46716 13.4 8.4 13.4672 8.4 13.55V14.45C8.4 14.5328 8.46716 14.6 8.55 14.6H11.85C11.9328 14.6 12 14.5328 12 14.45V13.55C12 13.4672 11.9328 13.4 11.85 13.4H8.55Z" fill="white" fill-opacity="0.7"/>
</svg>
