<svg width="128" height="126" viewBox="0 0 128 126" fill="none" xmlns="http://www.w3.org/2000/svg">
<mask id="mask0" style="mask-type:alpha" maskUnits="userSpaceOnUse" x="0" y="0" width="127" height="126">
<path d="M0 4C0 1.79086 1.79086 0 4 0L127 0V126H4C1.79086 126 0 124.209 0 122V4Z" fill="#F0F3F5"/>
</mask>
<g mask="url(#mask0)">
<rect width="127" height="126" fill="#8ED1F6"/>
<g opacity="0.7">
<mask id="mask1" style="mask-type:alpha" maskUnits="userSpaceOnUse" x="0" y="0" width="304" height="126">
<path d="M0 4C0 1.79086 1.79086 0 4 0H300C302.209 0 304 1.79086 304 4V126H0V4Z" fill="#1E2429"/>
</mask>
<g mask="url(#mask1)">
<rect x="9" width="295.059" height="123.686" fill="#034164"/>
<rect x="114.863" y="62.5883" width="71.5294" height="71.5294" transform="rotate(-45 114.863 62.5883)" fill="url(#paint0_linear)"/>
<rect x="64.196" y="11.8339" width="71.5294" height="71.5294" transform="rotate(-45 64.196 11.8339)" fill="url(#paint1_linear)"/>
<rect x="12.5005" y="62.5005" width="72.2569" height="72.2569" transform="rotate(-45 12.5005 62.5005)" fill="url(#paint2_linear)"/>
<rect x="-87" y="62.5791" width="71.5294" height="71.5294" transform="rotate(-45 -87 62.5791)" fill="url(#paint3_linear)"/>
<rect x="64.196" y="113.167" width="71.5294" height="71.5294" transform="rotate(-45 64.196 113.167)" fill="url(#paint4_linear)"/>
<rect x="13.5293" y="163.834" width="71.5294" height="71.5294" transform="rotate(-45 13.5293 163.834)" fill="url(#paint5_linear)"/>
<rect x="-37.1372" y="113.167" width="71.5294" height="71.5294" transform="rotate(-45 -37.1372 113.167)" fill="url(#paint6_linear)"/>
<rect x="-37.1372" y="11.8339" width="71.5294" height="71.5294" transform="rotate(-45 -37.1372 11.8339)" fill="url(#paint7_linear)"/>
<rect x="13.5293" y="-38.8328" width="71.5294" height="71.5294" transform="rotate(-45 13.5293 -38.8328)" fill="url(#paint8_linear)"/>
<rect x="114.863" y="163.834" width="71.5294" height="71.5294" transform="rotate(-45 114.863 163.834)" fill="url(#paint9_linear)"/>
<rect x="114.863" y="-38.8328" width="71.5294" height="71.5294" transform="rotate(-45 114.863 -38.8328)" fill="url(#paint10_linear)"/>
<g opacity="0.2">
<g opacity="0.5">
<path fill-rule="evenodd" clip-rule="evenodd" d="M-4.32139 103.092C-4.5213 103.092 -4.68335 102.93 -4.68335 102.73L-4.68335 65.0981C-4.68335 64.8982 -4.5213 64.7361 -4.32139 64.7361C-4.12149 64.7361 -3.95943 64.8982 -3.95943 65.0981L-3.95943 102.368L32.9483 102.368L32.9483 65.0981C32.9483 64.8982 33.1103 64.7361 33.3102 64.7361C33.5101 64.7361 33.6722 64.8982 33.6722 65.0981L33.6722 102.73C33.6722 102.93 33.5101 103.092 33.3102 103.092L-4.32139 103.092Z" fill="white"/>
<path fill-rule="evenodd" clip-rule="evenodd" d="M-1.81806 80.637C-1.63236 80.5594 -1.41579 80.6399 -1.33434 80.8169C4.51075 93.5194 17.8225 102.392 33.3053 102.392C33.5081 102.392 33.6725 102.548 33.6725 102.742C33.6725 102.935 33.5081 103.092 33.3053 103.092C17.5206 103.092 3.95113 94.0458 -2.00683 81.0981C-2.08828 80.9211 -2.00377 80.7147 -1.81806 80.637Z" fill="white"/>
</g>
<g opacity="0.5">
<path fill-rule="evenodd" clip-rule="evenodd" d="M-4.32139 64.7365C-4.5213 64.7365 -4.68335 64.5745 -4.68335 64.3746L-4.68335 26.7429C-4.68335 26.543 -4.5213 26.381 -4.32139 26.381L33.3102 26.381C33.5101 26.381 33.6722 26.543 33.6722 26.7429L33.6722 64.3745C33.6722 64.5745 33.5101 64.7365 33.3102 64.7365L-4.32139 64.7365ZM-3.95943 64.0126L32.9483 64.0126L32.9483 27.1049L-3.95943 27.1049L-3.95943 64.0126Z" fill="white"/>
<path fill-rule="evenodd" clip-rule="evenodd" d="M4.94259 55.4781C4.73962 55.4781 4.57507 55.3136 4.57507 55.1106L4.57507 34.684C4.57507 34.481 4.73962 34.3165 4.94259 34.3165C5.14557 34.3165 5.31011 34.481 5.31011 34.684L5.31011 54.7431L25.0017 54.7431L25.0017 34.684C25.0017 34.481 25.1663 34.3165 25.3692 34.3165C25.5722 34.3165 25.7367 34.481 25.7367 34.684L25.7367 55.1106C25.7367 55.3136 25.5722 55.4781 25.3692 55.4781L4.94259 55.4781Z" fill="white"/>
<path fill-rule="evenodd" clip-rule="evenodd" d="M13.1719 47.5426C12.8067 47.5426 12.5106 47.3884 12.5106 47.1981L12.5106 39.9515C12.5106 39.7612 12.8067 39.607 13.1719 39.607C13.5371 39.607 13.8332 39.7612 13.8332 39.9515L13.8332 47.1981C13.8332 47.3884 13.5371 47.5426 13.1719 47.5426Z" fill="white"/>
<path fill-rule="evenodd" clip-rule="evenodd" d="M13.1719 50.188C12.8067 50.188 12.5106 50.0178 12.5106 49.8079L12.5106 49.2454C12.5106 49.0355 12.8067 48.8654 13.1719 48.8654C13.5371 48.8654 13.8332 49.0355 13.8332 49.2454L13.8332 49.8079C13.8332 50.0178 13.5371 50.188 13.1719 50.188Z" fill="white"/>
<path fill-rule="evenodd" clip-rule="evenodd" d="M17.1401 39.6071C16.7748 39.6071 16.4788 39.4482 16.4788 39.2522L16.4788 34.6715C16.4788 34.4755 16.7748 34.3166 17.1401 34.3166C17.5053 34.3166 17.8014 34.4755 17.8014 34.6715L17.8014 39.2522C17.8014 39.4482 17.5053 39.6071 17.1401 39.6071Z" fill="white"/>
<path fill-rule="evenodd" clip-rule="evenodd" d="M17.1401 48.8653C16.7748 48.8653 16.4788 48.6988 16.4788 48.4933L16.4788 41.3016C16.4788 41.0962 16.7748 40.9297 17.1401 40.9297C17.5053 40.9297 17.8014 41.0962 17.8014 41.3016L17.8014 48.4933C17.8014 48.6988 17.5053 48.8653 17.1401 48.8653Z" fill="white"/>
<path fill-rule="evenodd" clip-rule="evenodd" d="M21.1075 43.5749C20.7422 43.5749 20.4462 43.4001 20.4462 43.1846L20.4462 34.707C20.4462 34.4914 20.7422 34.3167 21.1075 34.3167C21.4727 34.3167 21.7688 34.4914 21.7688 34.707L21.7688 43.1846C21.7688 43.4001 21.4727 43.5749 21.1075 43.5749Z" fill="white"/>
<path fill-rule="evenodd" clip-rule="evenodd" d="M21.1075 46.2203C20.7422 46.2203 20.4462 46.0546 20.4462 45.8501L20.4462 45.2678C20.4462 45.0634 20.7422 44.8977 21.1075 44.8977C21.4727 44.8977 21.7688 45.0634 21.7688 45.2678L21.7688 45.8501C21.7688 46.0546 21.4727 46.2203 21.1075 46.2203Z" fill="white"/>
</g>
<g opacity="0.5">
<path fill-rule="evenodd" clip-rule="evenodd" d="M34.0468 142.77C33.84 142.77 33.6724 142.602 33.6724 142.396L33.6724 139.437C33.6724 139.231 33.84 139.063 34.0468 139.063C34.2536 139.063 34.4212 139.231 34.4212 139.437L34.4212 142.021L72.6016 142.021L72.6016 103.841L34.4212 103.841L34.4212 136.385C34.4212 136.591 34.2536 136.759 34.0468 136.759C33.84 136.759 33.6724 136.591 33.6724 136.385L33.6724 103.466C33.6724 103.259 33.84 103.092 34.0468 103.092L72.9761 103.092C73.1829 103.092 73.3505 103.259 73.3505 103.466L73.3505 142.396C73.3505 142.602 73.1829 142.77 72.9761 142.77L34.0468 142.77Z" fill="white"/>
<path fill-rule="evenodd" clip-rule="evenodd" d="M42.9577 134.619C42.9022 134.488 42.935 134.339 43.0405 134.241L55.1049 123.029C55.1725 122.966 55.2631 122.931 55.3574 122.931L61.0856 122.931C61.2328 122.931 61.3654 123.016 61.4209 123.146C61.4763 123.276 61.4435 123.426 61.338 123.524L49.2736 134.736C49.206 134.799 49.1155 134.834 49.0212 134.834L43.293 134.834C43.1457 134.834 43.0131 134.749 42.9577 134.619ZM44.1837 134.143L48.8741 134.143L60.1948 123.622L55.5044 123.622L44.1837 134.143Z" fill="white"/>
<path fill-rule="evenodd" clip-rule="evenodd" d="M42.9577 109.944C43.0131 109.799 43.1457 109.705 43.293 109.705L49.0211 109.705C49.1155 109.705 49.2061 109.744 49.2736 109.814L61.338 122.272C61.4436 122.381 61.4763 122.547 61.4209 122.691C61.3654 122.836 61.2328 122.931 61.0856 122.931L55.3574 122.931C55.2631 122.931 55.1725 122.892 55.1049 122.822L43.0405 110.364C42.935 110.255 42.9022 110.089 42.9577 109.944ZM55.5045 122.163L60.195 122.163L48.8741 110.472L44.1836 110.472L55.5045 122.163Z" fill="white"/>
<path fill-rule="evenodd" clip-rule="evenodd" d="M62.3803 109.705C62.5953 109.705 62.7695 109.879 62.7695 110.094L62.7695 114.606C62.7695 114.821 62.5953 114.995 62.3803 114.995L57.8683 114.995C57.6534 114.995 57.4791 114.821 57.4791 114.606L57.4791 110.094C57.4791 109.879 57.6534 109.705 57.8683 109.705L62.3803 109.705ZM61.9911 110.483L58.2575 110.483L58.2575 114.217L61.9911 114.217L61.9911 110.483Z" fill="white"/>
</g>
<g opacity="0.5">
<path fill-rule="evenodd" clip-rule="evenodd" d="M-4.32139 142.77C-4.5213 142.77 -4.68335 142.602 -4.68335 142.396L-4.68335 103.466C-4.68335 103.259 -4.5213 103.092 -4.32139 103.092C-4.12149 103.092 -3.95943 103.259 -3.95943 103.466L-3.95943 142.021L32.9483 142.021L32.9483 103.466C32.9483 103.259 33.1103 103.092 33.3102 103.092C33.5101 103.092 33.6722 103.259 33.6722 103.466L33.6722 142.396C33.6722 142.602 33.5101 142.77 33.3102 142.77L-4.32139 142.77Z" fill="white"/>
<path fill-rule="evenodd" clip-rule="evenodd" d="M2.03449 109.822C2.1739 109.665 2.39992 109.665 2.53933 109.822L12.4062 120.922C12.5456 121.079 12.5456 121.334 12.4062 121.49C12.2668 121.647 12.0408 121.647 11.9014 121.49L2.03449 110.39C1.89508 110.233 1.89508 109.979 2.03449 109.822Z" fill="white"/>
<path fill-rule="evenodd" clip-rule="evenodd" d="M2.03449 136.052C1.89508 135.913 1.89508 135.687 2.03449 135.547L11.9014 125.68C12.0408 125.541 12.2668 125.541 12.4062 125.68C12.5456 125.82 12.5456 126.046 12.4062 126.185L2.53933 136.052C2.39992 136.191 2.1739 136.191 2.03449 136.052Z" fill="white"/>
<path fill-rule="evenodd" clip-rule="evenodd" d="M16.5833 125.68C16.7227 125.541 16.9488 125.541 17.0882 125.68L26.955 135.547C27.0944 135.687 27.0944 135.913 26.955 136.052C26.8156 136.191 26.5896 136.191 26.4502 136.052L16.5833 126.185C16.4439 126.046 16.4439 125.82 16.5833 125.68Z" fill="white"/>
<path fill-rule="evenodd" clip-rule="evenodd" d="M16.5833 121.49C16.4439 121.334 16.4439 121.079 16.5833 120.922L26.4502 109.822C26.5896 109.665 26.8156 109.665 26.955 109.822C27.0944 109.979 27.0944 110.233 26.955 110.39L17.0882 121.49C16.9488 121.647 16.7227 121.647 16.5833 121.49Z" fill="white"/>
</g>
<g opacity="0.5">
<path fill-rule="evenodd" clip-rule="evenodd" d="M127.374 37.423C127.175 37.423 127.013 37.2553 127.013 37.0485L127.013 -1.50629L89.7429 -1.50629C89.543 -1.50628 89.3809 -1.67393 89.3809 -1.88072C89.3809 -2.08752 89.543 -2.25516 89.7429 -2.25516L127.374 -2.25517C127.574 -2.25517 127.736 -2.08753 127.736 -1.88073L127.736 37.0485C127.736 37.2553 127.574 37.423 127.374 37.423Z" fill="white"/>
<path fill-rule="evenodd" clip-rule="evenodd" d="M112.527 34.7777C112.162 34.7777 111.866 34.6037 111.866 34.389L111.866 31.1986C111.866 30.9839 112.162 30.8099 112.527 30.8099C112.892 30.8099 113.188 30.9839 113.188 31.1986L113.188 34.389C113.188 34.6037 112.892 34.7777 112.527 34.7777Z" fill="white"/>
<path fill-rule="evenodd" clip-rule="evenodd" d="M103.269 34.7777C102.904 34.7777 102.608 34.6037 102.608 34.389L102.608 31.1986C102.608 30.9839 102.904 30.8099 103.269 30.8099C103.635 30.8099 103.931 30.9839 103.931 31.1986L103.931 34.389C103.931 34.6037 103.635 34.7777 103.269 34.7777Z" fill="white"/>
<path fill-rule="evenodd" clip-rule="evenodd" d="M94.0103 34.7777C93.6451 34.7777 93.349 34.6037 93.349 34.389L93.349 31.1986C93.349 30.9839 93.6451 30.8099 94.0103 30.8099C94.3756 30.8099 94.6716 30.9839 94.6716 31.1986L94.6716 34.389C94.6716 34.6037 94.3756 34.7777 94.0103 34.7777Z" fill="white"/>
<path fill-rule="evenodd" clip-rule="evenodd" d="M112.527 24.1967C112.162 24.1967 111.866 24.0226 111.866 23.8079L111.866 20.6176C111.866 20.4029 112.162 20.2288 112.527 20.2288C112.892 20.2288 113.188 20.4029 113.188 20.6176L113.188 23.8079C113.188 24.0226 112.892 24.1967 112.527 24.1967Z" fill="white"/>
<path fill-rule="evenodd" clip-rule="evenodd" d="M103.269 24.1967C102.904 24.1967 102.608 24.0226 102.608 23.8079L102.608 20.6176C102.608 20.4029 102.904 20.2288 103.269 20.2288C103.635 20.2288 103.931 20.4029 103.931 20.6176L103.931 23.8079C103.931 24.0226 103.635 24.1967 103.269 24.1967Z" fill="white"/>
<path fill-rule="evenodd" clip-rule="evenodd" d="M94.0103 24.1967C93.6451 24.1967 93.349 24.0226 93.349 23.8079L93.349 20.6176C93.349 20.4029 93.6451 20.2288 94.0103 20.2288C94.3756 20.2288 94.6716 20.4029 94.6716 20.6176L94.6716 23.8079C94.6716 24.0226 94.3756 24.1967 94.0103 24.1967Z" fill="white"/>
<path fill-rule="evenodd" clip-rule="evenodd" d="M125.092 12.9547C125.092 13.3199 124.918 13.616 124.703 13.616L121.513 13.616C121.298 13.616 121.124 13.3199 121.124 12.9547C121.124 12.5894 121.298 12.2934 121.513 12.2934L124.703 12.2934C124.918 12.2934 125.092 12.5894 125.092 12.9547Z" fill="white"/>
<path fill-rule="evenodd" clip-rule="evenodd" d="M112.527 14.9386C112.162 14.9386 111.866 14.7644 111.866 14.5496L111.866 11.3598C111.866 11.1449 112.162 10.9708 112.527 10.9708C112.892 10.9708 113.188 11.1449 113.188 11.3598L113.188 14.5496C113.188 14.7644 112.892 14.9386 112.527 14.9386Z" fill="white"/>
<path fill-rule="evenodd" clip-rule="evenodd" d="M114.511 12.9547C114.511 13.3199 114.337 13.616 114.122 13.616L110.932 13.616C110.717 13.616 110.543 13.3199 110.543 12.9547C110.543 12.5894 110.717 12.2934 110.932 12.2934L114.122 12.2934C114.337 12.2934 114.511 12.5894 114.511 12.9547Z" fill="white"/>
<path fill-rule="evenodd" clip-rule="evenodd" d="M103.269 14.9386C102.904 14.9386 102.608 14.7644 102.608 14.5496L102.608 11.3598C102.608 11.1449 102.904 10.9708 103.269 10.9708C103.635 10.9708 103.931 11.1449 103.931 11.3598L103.931 14.5496C103.931 14.7644 103.635 14.9386 103.269 14.9386Z" fill="white"/>
<path fill-rule="evenodd" clip-rule="evenodd" d="M105.253 12.9547C105.253 13.3199 105.137 13.616 104.994 13.616L102.867 13.616C102.724 13.616 102.608 13.3199 102.608 12.9547C102.608 12.5894 102.724 12.2934 102.867 12.2934L104.994 12.2934C105.137 12.2934 105.253 12.5894 105.253 12.9547Z" fill="white"/>
<path fill-rule="evenodd" clip-rule="evenodd" d="M94.0103 14.9386C93.6451 14.9386 93.349 14.7644 93.349 14.5496L93.349 11.3598C93.349 11.1449 93.6451 10.9708 94.0103 10.9708C94.3756 10.9708 94.6716 11.1449 94.6716 11.3598L94.6716 14.5496C94.6716 14.7644 94.3756 14.9386 94.0103 14.9386Z" fill="white"/>
<path fill-rule="evenodd" clip-rule="evenodd" d="M95.9944 12.9547C95.9944 13.3199 95.8203 13.616 95.6056 13.616L92.4153 13.616C92.2006 13.616 92.0266 13.3199 92.0266 12.9547C92.0266 12.5894 92.2006 12.2934 92.4153 12.2934L95.6056 12.2934C95.8203 12.2934 95.9944 12.5894 95.9944 12.9547Z" fill="white"/>
<path fill-rule="evenodd" clip-rule="evenodd" d="M125.092 3.69636C125.092 4.06159 124.918 4.35767 124.703 4.35767L121.513 4.35767C121.298 4.35767 121.124 4.06159 121.124 3.69637C121.124 3.33114 121.298 3.03506 121.513 3.03506L124.703 3.03506C124.918 3.03506 125.092 3.33114 125.092 3.69636Z" fill="white"/>
<path fill-rule="evenodd" clip-rule="evenodd" d="M112.527 5.68042C112.162 5.68042 111.866 5.50637 111.866 5.29167L111.866 2.10135C111.866 1.88665 112.162 1.71261 112.527 1.71261C112.892 1.71261 113.188 1.88665 113.188 2.10135L113.188 5.29167C113.188 5.50637 112.892 5.68042 112.527 5.68042Z" fill="white"/>
<path fill-rule="evenodd" clip-rule="evenodd" d="M114.511 3.69636C114.511 4.06159 114.337 4.35767 114.122 4.35767L110.932 4.35767C110.717 4.35767 110.543 4.06159 110.543 3.69637C110.543 3.33114 110.717 3.03506 110.932 3.03506L114.122 3.03506C114.337 3.03506 114.511 3.33114 114.511 3.69636Z" fill="white"/>
<path fill-rule="evenodd" clip-rule="evenodd" d="M103.269 5.68054C102.904 5.68054 102.608 5.5065 102.608 5.2918L102.608 2.10148C102.608 1.88678 102.904 1.71273 103.269 1.71273C103.635 1.71273 103.931 1.88678 103.931 2.10147L103.931 5.29179C103.931 5.50649 103.635 5.68054 103.269 5.68054Z" fill="white"/>
<path fill-rule="evenodd" clip-rule="evenodd" d="M105.253 3.69649C105.253 4.06171 105.137 4.35779 104.994 4.35779L102.867 4.35779C102.724 4.35779 102.608 4.06172 102.608 3.69649C102.608 3.33126 102.724 3.03519 102.867 3.03519L104.994 3.03518C105.137 3.03518 105.253 3.33126 105.253 3.69649Z" fill="white"/>
<path fill-rule="evenodd" clip-rule="evenodd" d="M94.0103 5.68054C93.6451 5.68054 93.349 5.5065 93.349 5.2918L93.349 2.10148C93.349 1.88678 93.6451 1.71273 94.0103 1.71273C94.3756 1.71273 94.6716 1.88678 94.6716 2.10147L94.6716 5.29179C94.6716 5.50649 94.3756 5.68054 94.0103 5.68054Z" fill="white"/>
<path fill-rule="evenodd" clip-rule="evenodd" d="M95.9944 3.69649C95.9944 4.06171 95.8203 4.35779 95.6056 4.35779L92.4153 4.35779C92.2006 4.35779 92.0266 4.06172 92.0266 3.69649C92.0266 3.33126 92.2006 3.03519 92.4153 3.03519L95.6056 3.03518C95.8203 3.03518 95.9944 3.33126 95.9944 3.69649Z" fill="white"/>
</g>
</g>
</g>
</g>
</g>
<g filter="url(#filter0_d)">
<path d="M32 46.1053C32 45.0039 32.6035 43.991 33.5722 43.4668L62.5722 27.7727C63.463 27.2906 64.537 27.2906 65.4278 27.7727L94.4279 43.4668C95.3965 43.991 96 45.0039 96 46.1053V80.4281C96 81.5295 95.3965 82.5423 94.4278 83.0665L65.4278 98.7606C64.537 99.2427 63.463 99.2427 62.5722 98.7606L33.5721 83.0665C32.6035 82.5423 32 81.5295 32 80.4281V46.1053Z" fill="#316E8F"/>
<path d="M33.75 46.1053C33.75 45.6463 34.0015 45.2243 34.4051 45.0059L63.4051 29.3118C63.7763 29.1109 64.2237 29.1109 64.5949 29.3118L93.5949 45.0059C93.9985 45.2243 94.25 45.6463 94.25 46.1053V80.4281C94.25 80.887 93.9985 81.309 93.5949 81.5274L64.5949 97.2215C64.2238 97.4224 63.7763 97.4224 63.4051 97.2215L34.4051 81.5274C34.0015 81.309 33.75 80.887 33.75 80.4281V46.1053Z" stroke="white" stroke-width="3.5"/>
</g>
<g filter="url(#filter1_d)">
<path d="M48.753 49.5883C47.8173 49.5883 47.0588 50.3467 47.0588 51.2824V75C47.0588 75.9357 47.8173 76.6941 48.753 76.6941H67.3883V73.3059H50.4471V52.9765H77.553V51.2824C77.553 50.3467 76.7945 49.5883 75.8588 49.5883H48.753Z" fill="white" fill-opacity="0.95" shape-rendering="crispEdges"/>
<path fill-rule="evenodd" clip-rule="evenodd" d="M80.9412 63.1412C80.9412 65.6926 79.5312 67.9146 77.4479 69.0706H77.553V76.6941L74.1647 74.153L70.7765 76.6941V69.0706H70.8815C68.7982 67.9146 67.3883 65.6926 67.3883 63.1412C67.3883 59.3987 70.4222 56.3647 74.1647 56.3647C77.9073 56.3647 80.9412 59.3987 80.9412 63.1412ZM74.1647 66.5294C76.036 66.5294 77.553 65.0125 77.553 63.1412C77.553 61.2699 76.036 59.753 74.1647 59.753C72.2935 59.753 70.7765 61.2699 70.7765 63.1412C70.7765 65.0125 72.2935 66.5294 74.1647 66.5294Z" fill="white" fill-opacity="0.95" shape-rendering="crispEdges"/>
<path d="M53.8353 58.4824C53.8353 58.2485 54.0249 58.0588 54.2588 58.0588H63.5765C63.8104 58.0588 64 58.2485 64 58.4824V61.0236C64 61.2575 63.8104 61.4471 63.5765 61.4471H54.2588C54.0249 61.4471 53.8353 61.2575 53.8353 61.0236V58.4824Z" fill="white" fill-opacity="0.95" shape-rendering="crispEdges"/>
<path d="M54.2588 64.8353C54.0249 64.8353 53.8353 65.0249 53.8353 65.2588V67.8C53.8353 68.0339 54.0249 68.2236 54.2588 68.2236H63.5765C63.8104 68.2236 64 68.0339 64 67.8V65.2588C64 65.0249 63.8104 64.8353 63.5765 64.8353H54.2588Z" fill="white" fill-opacity="0.95" shape-rendering="crispEdges"/>
</g>
<defs>
<filter id="filter0_d" x="22" y="22.4111" width="84" height="91.7111" filterUnits="userSpaceOnUse" color-interpolation-filters="sRGB">
<feFlood flood-opacity="0" result="BackgroundImageFix"/>
<feColorMatrix in="SourceAlpha" type="matrix" values="0 0 0 0 0 0 0 0 0 0 0 0 0 0 0 0 0 0 127 0" result="hardAlpha"/>
<feOffset dy="5"/>
<feGaussianBlur stdDeviation="5"/>
<feComposite in2="hardAlpha" operator="out"/>
<feColorMatrix type="matrix" values="0 0 0 0 0 0 0 0 0 0.178003 0 0 0 0 0.275284 0 0 0 0.5 0"/>
<feBlend mode="normal" in2="BackgroundImageFix" result="effect1_dropShadow"/>
<feBlend mode="normal" in="SourceGraphic" in2="effect1_dropShadow" result="shape"/>
</filter>
<filter id="filter1_d" x="46.0588" y="49.5883" width="35.8823" height="29.1059" filterUnits="userSpaceOnUse" color-interpolation-filters="sRGB">
<feFlood flood-opacity="0" result="BackgroundImageFix"/>
<feColorMatrix in="SourceAlpha" type="matrix" values="0 0 0 0 0 0 0 0 0 0 0 0 0 0 0 0 0 0 127 0" result="hardAlpha"/>
<feOffset dy="1"/>
<feGaussianBlur stdDeviation="0.5"/>
<feComposite in2="hardAlpha" operator="out"/>
<feColorMatrix type="matrix" values="0 0 0 0 0 0 0 0 0 0.337255 0 0 0 0 0.521569 0 0 0 1 0"/>
<feBlend mode="normal" in2="BackgroundImageFix" result="effect1_dropShadow"/>
<feBlend mode="normal" in="SourceGraphic" in2="effect1_dropShadow" result="shape"/>
</filter>
<linearGradient id="paint0_linear" x1="114.863" y1="134.242" x2="186.516" y2="62.5883" gradientUnits="userSpaceOnUse">
<stop stop-color="#0B4769"/>
<stop offset="1" stop-color="#083A59"/>
</linearGradient>
<linearGradient id="paint1_linear" x1="63.94" y1="51.4106" x2="136.065" y2="51.4106" gradientUnits="userSpaceOnUse">
<stop stop-color="#0B4769"/>
<stop offset="1" stop-color="#0C3751"/>
</linearGradient>
<linearGradient id="paint2_linear" x1="11.3734" y1="96.6254" x2="84.8201" y2="96.6254" gradientUnits="userSpaceOnUse">
<stop stop-color="#0B4769"/>
<stop offset="1" stop-color="#063D5B"/>
</linearGradient>
<linearGradient id="paint3_linear" x1="-88.1157" y1="96.3604" x2="-15.4085" y2="96.3604" gradientUnits="userSpaceOnUse">
<stop stop-color="#0B4769"/>
<stop offset="1" stop-color="#063D5B"/>
</linearGradient>
<linearGradient id="paint4_linear" x1="62.0266" y1="148.002" x2="136.841" y2="145.895" gradientUnits="userSpaceOnUse">
<stop stop-color="#034164"/>
<stop offset="1" stop-color="#103247"/>
</linearGradient>
<linearGradient id="paint5_linear" x1="13.5293" y1="235.488" x2="85.1828" y2="163.834" gradientUnits="userSpaceOnUse">
<stop stop-color="#034164"/>
<stop offset="1" stop-color="#083A59"/>
</linearGradient>
<linearGradient id="paint6_linear" x1="-37.1372" y1="184.821" x2="34.5163" y2="113.167" gradientUnits="userSpaceOnUse">
<stop stop-color="#034164"/>
<stop offset="1" stop-color="#083A59"/>
</linearGradient>
<linearGradient id="paint7_linear" x1="2.84247" y1="86.7106" x2="2.84247" y2="5.57349" gradientUnits="userSpaceOnUse">
<stop stop-color="#164B6A"/>
<stop offset="1" stop-color="#083A59"/>
</linearGradient>
<linearGradient id="paint8_linear" x1="13.5293" y1="32.8208" x2="85.1828" y2="-38.8328" gradientUnits="userSpaceOnUse">
<stop stop-color="#034164"/>
<stop offset="1" stop-color="#083A59"/>
</linearGradient>
<linearGradient id="paint9_linear" x1="114.863" y1="235.488" x2="186.516" y2="163.834" gradientUnits="userSpaceOnUse">
<stop stop-color="#034164"/>
<stop offset="1" stop-color="#083A59"/>
</linearGradient>
<linearGradient id="paint10_linear" x1="114.863" y1="32.8208" x2="186.516" y2="-38.8328" gradientUnits="userSpaceOnUse">
<stop stop-color="#034164"/>
<stop offset="1" stop-color="#083A59"/>
</linearGradient>
</defs>
</svg>
