<svg width="45" height="45" viewBox="0 0 45 45" fill="none" xmlns="http://www.w3.org/2000/svg">
  <!-- Center diamond -->
  <rect x="20" y="20" width="5" height="5" transform="rotate(45 22.5 22.5)" fill="#00A1E0"/>

  <!-- Arrow shapes around the diamond -->
  <path d="M22.5 2 L27 8 L23.5 10 L26.5 14 L22.5 10 L18.5 14 L21.5 10 L18 8 Z" fill="#00A1E0"/>
  <path d="M22.5 43 L27 37 L23.5 35 L26.5 31 L22.5 35 L18.5 31 L21.5 35 L18 37 Z" fill="#00A1E0"/>
  <path d="M2 22.5 L8 27 L10 23.5 L14 26.5 L10 22.5 L14 18.5 L10 21.5 L8 18 Z" fill="#00A1E0"/>
  <path d="M43 22.5 L37 27 L35 23.5 L31 26.5 L35 22.5 L31 18.5 L35 21.5 L37 18 Z" fill="#00A1E0"/>

  <!-- Diagonal arrow shapes -->
  <path d="M10 10 L12 12 L9 14 L13 18 L8 15 L6 18 L9 14 L6 10 Z" fill="#00A1E0"/>
  <path d="M35 10 L33 12 L36 14 L32 18 L37 15 L39 18 L36 14 L39 10 Z" fill="#00A1E0"/>
  <path d="M10 35 L12 33 L9 31 L13 27 L8 30 L6 27 L9 31 L6 35 Z" fill="#00A1E0"/>
  <path d="M35 35 L33 33 L36 31 L32 27 L37 30 L39 27 L36 31 L39 35 Z" fill="#00A1E0"/>
</svg>
